<svg width="512" height="512" viewBox="0 0 512 512" fill="none" xmlns="http://www.w3.org/2000/svg">
    <g clip-path="url(#clip0_5_2)">
        <path
            d="M115.801 491.38C124.964 485.031 133.957 478.441 143.606 472.858L345.006 361.762C392.211 335.722 403.282 273.704 370.118 233.026L431.024 182.518C461.624 157.142 464.679 111.291 437.715 82.08C409.522 51.538 360.982 52.48 333.995 84.093L282.259 144.698C241.712 108.136 176.988 118.496 150.237 166.992L39.1421 368.392C33.5601 378.04 26.9691 387.033 20.6201 396.198C2.15008 422.857 4.78808 459.718 28.5341 483.464C52.2801 507.212 89.1401 509.849 115.801 491.38Z"
            fill="#C9EDFF" />
        <path
            d="M141.078 458.572C145.943 445.258 146.279 432.469 143.769 420.732L249.559 333.004C271.8 314.561 273.363 280.987 252.932 260.556C232.698 240.322 199.514 241.63 180.936 263.394L91.4081 368.268C79.4691 365.69 66.4471 366.02 52.8431 371.202C29.6911 380.021 12.4671 400.998 9.14607 425.549C2.98106 471.113 41.7291 509.503 87.3901 502.722C111.808 499.094 132.605 481.757 141.078 458.572Z"
            fill="white" />
        <path
            d="M42.2561 435.542C42.2561 454.431 57.5689 469.744 76.4581 469.744C95.3473 469.744 110.66 454.431 110.66 435.542C110.66 416.653 95.3473 401.34 76.4581 401.34C57.5689 401.34 42.2561 416.653 42.2561 435.542Z"
            fill="#C9EDFF" />
        <path
            d="M473.141 127.663C472.258 128.415 471.549 129.35 471.064 130.404C470.578 131.457 470.328 132.604 470.33 133.764C470.33 135.604 470.961 137.456 472.25 138.965C472.934 139.766 473.768 140.424 474.706 140.902C475.644 141.38 476.667 141.669 477.716 141.752C478.766 141.835 479.822 141.71 480.823 141.384C481.824 141.059 482.752 140.54 483.552 139.856L500.637 125.27C501.438 124.586 502.096 123.752 502.574 122.814C503.052 121.876 503.341 120.853 503.424 119.804C503.507 118.754 503.382 117.698 503.057 116.697C502.731 115.696 502.212 114.768 501.528 113.968C500.845 113.167 500.01 112.509 499.072 112.031C498.134 111.553 497.111 111.264 496.062 111.181C495.012 111.098 493.957 111.223 492.955 111.549C491.954 111.874 491.027 112.393 490.226 113.077L473.141 127.663ZM139.656 412.346C138.773 413.098 138.064 414.033 137.579 415.087C137.093 416.14 136.843 417.287 136.845 418.447C136.845 420.287 137.476 422.139 138.765 423.648C139.449 424.449 140.283 425.107 141.221 425.585C142.159 426.063 143.182 426.352 144.231 426.435C145.281 426.518 146.337 426.393 147.338 426.067C148.339 425.742 149.267 425.223 150.067 424.539L457.902 161.752C458.703 161.068 459.361 160.234 459.839 159.296C460.317 158.358 460.606 157.335 460.689 156.286C460.772 155.236 460.647 154.18 460.322 153.179C459.996 152.178 459.477 151.25 458.793 150.45C458.11 149.649 457.275 148.991 456.337 148.513C455.399 148.035 454.376 147.746 453.327 147.663C452.277 147.58 451.222 147.705 450.22 148.031C449.219 148.356 448.292 148.875 447.491 149.559L139.656 412.346ZM392.397 38.943L407.4 21.857C408.778 20.2561 409.469 18.176 409.322 16.0688C409.174 13.9616 408.202 11.9977 406.614 10.6039C405.027 9.21009 402.954 8.49913 400.845 8.62554C398.737 8.75196 396.763 9.70553 395.354 11.279L380.351 28.365C379.065 29.8254 378.357 31.7051 378.359 33.651C378.358 35.2811 378.854 36.8729 379.78 38.2139C380.707 39.5549 382.021 40.5814 383.546 41.1564C385.072 41.7314 386.736 41.8276 388.317 41.4321C389.899 41.0366 391.322 40.1683 392.397 38.943ZM369.845 64.627C370.54 63.8361 371.072 62.916 371.411 61.9194C371.75 60.9228 371.889 59.8692 371.821 58.8187C371.753 57.7682 371.478 56.7415 371.013 55.7971C370.548 54.8528 369.901 54.0093 369.11 53.315C367.513 51.9123 365.423 51.2017 363.302 51.3393C361.181 51.477 359.201 52.4517 357.798 54.049L87.5331 361.85C86.2473 363.31 85.539 365.19 85.5411 367.136C85.5404 368.766 86.0366 370.357 86.9635 371.698C87.8905 373.039 89.204 374.065 90.7292 374.64C92.2543 375.215 93.9185 375.311 95.4998 374.916C97.0812 374.521 98.5045 373.654 99.5801 372.429L369.845 64.627ZM485.163 266.16C484.252 266.687 483.453 267.388 482.813 268.224C482.173 269.06 481.703 270.014 481.432 271.031C481.16 272.048 481.092 273.108 481.23 274.152C481.369 275.196 481.712 276.202 482.239 277.113C483.304 278.953 485.056 280.295 487.11 280.843C489.164 281.391 491.352 281.101 493.192 280.037L507.997 271.47C509.805 270.389 511.115 268.64 511.643 266.601C512.172 264.562 511.877 262.397 510.822 260.574C509.767 258.751 508.037 257.416 506.006 256.859C503.975 256.301 501.806 256.564 499.968 257.593L485.163 266.16Z"
            fill="black" />
        <path
            d="M119.92 498.415C121.74 497.154 123.553 495.883 125.367 494.613C132.754 489.438 139.731 484.549 147.175 480.243L463.684 297.111C465.492 296.03 466.802 294.281 467.33 292.242C467.859 290.203 467.564 288.038 466.509 286.215C465.454 284.392 463.724 283.057 461.693 282.5C459.662 281.942 457.493 282.205 455.655 283.234L139.145 466.367C131.1 471.022 123.508 476.341 116.167 481.484C114.377 482.738 112.586 483.993 110.79 485.238C86.8151 501.847 54.4191 498.907 33.7561 478.246C13.0951 457.584 10.1531 425.187 26.7641 401.213C28.0091 399.415 29.2631 397.626 30.5181 395.835C35.6621 388.493 40.9811 380.902 45.6351 372.857L229.678 54.768C230.713 52.9295 230.981 50.7574 230.425 48.7225C229.868 46.6876 228.533 44.9539 226.707 43.8974C224.881 42.8408 222.712 42.5465 220.671 43.0782C218.629 43.61 216.879 44.9249 215.801 46.738L31.7561 364.825C27.4491 372.269 22.5611 379.247 17.3861 386.633C16.1161 388.446 14.8451 390.259 13.5841 392.08C4.73312 404.828 -0.00689962 419.978 8.89055e-05 435.498C8.89055e-05 455.201 7.6131 474.774 22.4191 489.579C48.5651 515.726 89.5701 519.442 119.92 498.415ZM245.872 26.779L254.404 12.033C255.429 10.1953 255.69 8.02827 255.132 5.99961C254.573 3.97096 253.239 2.24327 251.418 1.18934C249.597 0.135406 247.434 -0.160266 245.397 0.366118C243.359 0.892502 241.611 2.19874 240.528 4.00298L231.996 18.749C231.468 19.6601 231.125 20.6662 230.987 21.7099C230.848 22.7536 230.916 23.8144 231.188 24.8316C231.459 25.8489 231.929 26.8027 232.569 27.6386C233.209 28.4744 234.008 29.1759 234.919 29.703C236.759 30.7675 238.947 31.0574 241.001 30.5091C243.055 29.9607 244.807 28.619 245.872 26.779Z"
            fill="black" />
        <path
            d="M76.4571 393.325C53.1781 393.325 34.2391 412.264 34.2391 435.543C34.2391 458.822 53.1781 477.761 76.4571 477.761C99.7361 477.761 118.675 458.822 118.675 435.543C118.675 412.264 99.7351 393.325 76.4571 393.325ZM102.643 435.543C102.643 449.982 90.8961 461.729 76.4571 461.729C62.0181 461.729 50.2711 449.982 50.2711 435.543C50.2711 421.104 62.0181 409.357 76.4571 409.357C90.8961 409.357 102.643 421.105 102.643 435.543ZM117.817 382.847C117.072 383.59 116.48 384.474 116.078 385.447C115.675 386.419 115.468 387.462 115.469 388.515C115.468 389.568 115.674 390.611 116.077 391.583C116.48 392.556 117.071 393.44 117.817 394.183C118.561 394.927 119.445 395.518 120.418 395.921C121.39 396.324 122.432 396.531 123.485 396.531C124.538 396.531 125.58 396.324 126.553 395.921C127.525 395.518 128.409 394.927 129.153 394.183L509.651 13.685C510.395 12.9407 510.986 12.0571 511.389 11.0845C511.792 10.112 511.999 9.06965 511.999 8.01698C511.999 6.96431 511.792 5.92194 511.389 4.94942C510.986 3.97689 510.395 3.09326 509.651 2.34898C508.907 1.60456 508.023 1.01404 507.051 0.611152C506.078 0.208265 505.036 0.000900269 503.983 0.000900269C502.93 0.000900269 501.888 0.208265 500.916 0.611152C499.943 1.01404 499.059 1.60456 498.315 2.34898L117.817 382.847Z"
            fill="black" />
    </g>
    <defs>
        <clipPath id="clip0_5_2">
            <rect width="512" height="512" fill="white" transform="matrix(0 1 -1 0 512 -1.52588e-05)" />
        </clipPath>
    </defs>
</svg>